<svg width="192" height="216" viewBox="0 0 192 216" fill="none" xmlns="http://www.w3.org/2000/svg">
<path fill-rule="evenodd" clip-rule="evenodd" d="M112.942 41.5098C108.602 45.8365 102.613 48.5112 96 48.5112C89.5737 48.5112 83.7373 45.9855 79.4293 41.8725L47.2312 60.4621C47.733 62.3946 48 64.4217 48 66.5112C48 77.4454 40.6879 86.6718 30.6869 89.5673V125.455C40.6879 128.351 48 137.577 48 148.511C48 150.913 47.6471 153.233 46.9903 155.421L79.4293 174.15C83.7373 170.037 89.5737 167.511 96 167.511C102.613 167.511 108.602 170.186 112.942 174.513L145.162 155.91C144.408 153.58 144 151.093 144 148.511C144 137.216 151.803 127.743 162.313 125.189V89.8335C151.803 87.2797 144 77.8067 144 66.5112C144 64.2411 144.315 62.0445 144.904 59.963L112.942 41.5098ZM72.8022 30.6876C72.2789 28.7169 72 26.6466 72 24.5112C72 11.2564 82.7452 0.51123 96 0.51123C109.255 0.51123 120 11.2564 120 24.5112C120 26.4655 119.766 28.3653 119.326 30.1841L151.713 48.8831C155.992 44.928 161.714 42.5112 168 42.5112C181.255 42.5112 192 53.2564 192 66.5112C192 77.2159 184.992 86.2837 175.313 89.3767V125.646C184.992 128.739 192 137.807 192 148.511C192 161.766 181.255 172.511 168 172.511C162.042 172.511 156.591 170.34 152.395 166.746L119.326 185.838C119.766 187.657 120 189.557 120 191.511C120 204.766 109.255 215.511 96 215.511C82.7452 215.511 72 204.766 72 191.511C72 189.376 72.2789 187.306 72.8022 185.335L40.0024 166.398C35.7561 170.2 30.148 172.511 24 172.511C10.7452 172.511 0 161.766 0 148.511C0 137.441 7.49477 128.122 17.6869 125.35V89.6723C7.49477 86.9007 0 77.5812 0 66.5112C0 53.2564 10.7452 42.5112 24 42.5112C30.4739 42.5112 36.349 45.0745 40.666 49.2414L72.8022 30.6876Z" fill="black"/>
</svg>
