<svg width="192" height="216" viewBox="0 0 192 216" fill="none" xmlns="http://www.w3.org/2000/svg">
<path fill-rule="evenodd" clip-rule="evenodd" d="M112.942 41.8071C108.602 46.1338 102.613 48.8085 96 48.8085C89.5737 48.8085 83.7373 46.2828 79.4293 42.1698L47.2312 60.7594C47.733 62.6919 48 64.719 48 66.8085C48 77.7428 40.6879 86.9691 30.6869 89.8646V125.752C40.6879 128.648 48 137.874 48 148.809C48 151.211 47.6471 153.53 46.9903 155.719L79.4293 174.447C83.7373 170.334 89.5737 167.809 96 167.809C102.613 167.809 108.602 170.483 112.942 174.81L145.162 156.208C144.408 153.877 144 151.39 144 148.809C144 137.513 151.803 128.04 162.313 125.486V90.1308C151.803 87.577 144 78.104 144 66.8085C144 64.5384 144.315 62.3418 144.904 60.2603L112.942 41.8071ZM72.8022 30.9849C72.2789 29.0142 72 26.9439 72 24.8085C72 11.5537 82.7452 0.808533 96 0.808533C109.255 0.808533 120 11.5537 120 24.8085C120 26.7628 119.766 28.6626 119.326 30.4814L151.713 49.1804C155.992 45.2253 161.714 42.8085 168 42.8085C181.255 42.8085 192 53.5537 192 66.8085C192 77.5132 184.992 86.581 175.313 89.674V125.943C184.992 129.036 192 138.104 192 148.809C192 162.063 181.255 172.809 168 172.809C162.042 172.809 156.591 170.637 152.395 167.043L119.326 186.136C119.766 187.954 120 189.854 120 191.809C120 205.063 109.255 215.809 96 215.809C82.7452 215.809 72 205.063 72 191.809C72 189.673 72.2789 187.603 72.8022 185.632L40.0024 166.695C35.7561 170.497 30.148 172.809 24 172.809C10.7452 172.809 0 162.063 0 148.809C0 137.739 7.49477 128.419 17.6869 125.647V89.9696C7.49477 87.198 0 77.8785 0 66.8085C0 53.5537 10.7452 42.8085 24 42.8085C30.4739 42.8085 36.349 45.3718 40.666 49.5387L72.8022 30.9849Z" fill="#202124" style="fill:#202124;fill:color(display-p3 0.1255 0.1294 0.1412);fill-opacity:1;"/>
</svg>
